<svg id="Layer_1" xmlns="http://www.w3.org/2000/svg" viewBox="0 0 691.2 137"><style>.st0{fill:#fff}</style><path class="st0" d="M526.9 54.7c-8.8 0-15.3 5.9-16.2 14.7h31.9c-.9-8.9-7-14.7-15.7-14.7zm0 0c-8.8 0-15.3 5.9-16.2 14.7h31.9c-.9-8.9-7-14.7-15.7-14.7zm0 0c-8.8 0-15.3 5.9-16.2 14.7h31.9c-.9-8.9-7-14.7-15.7-14.7zm45.4 0c-9.6 0-16.7 7.2-16.8 17.2.1 10.1 7 17.2 16.8 17.2 9.7 0 16.7-7.2 16.7-17.2-.1-9.9-7.1-17.2-16.7-17.2zm0 0c-9.6 0-16.7 7.2-16.8 17.2.1 10.1 7 17.2 16.8 17.2 9.7 0 16.7-7.2 16.7-17.2-.1-9.9-7.1-17.2-16.7-17.2zm-45.4 0c-8.8 0-15.3 5.9-16.2 14.7h31.9c-.9-8.9-7-14.7-15.7-14.7zm0 0c-8.8 0-15.3 5.9-16.2 14.7h31.9c-.9-8.9-7-14.7-15.7-14.7zm45.4 0c-9.6 0-16.7 7.2-16.8 17.2.1 10.1 7 17.2 16.8 17.2 9.7 0 16.7-7.2 16.7-17.2-.1-9.9-7.1-17.2-16.7-17.2zm61.6 18.1c-5.5 0-12 1.3-12 7.6 0 5.3 4.1 8.7 10.5 8.7 7.8 0 13.1-3.5 15.5-10.1v-6.2h-14zm0 0c-5.5 0-12 1.3-12 7.6 0 5.3 4.1 8.7 10.5 8.7 7.8 0 13.1-3.5 15.5-10.1v-6.2h-14zm-61.6-18.1c-9.6 0-16.7 7.2-16.8 17.2.1 10.1 7 17.2 16.8 17.2 9.7 0 16.7-7.2 16.7-17.2-.1-9.9-7.1-17.2-16.7-17.2zm-45.4 0c-8.8 0-15.3 5.9-16.2 14.7h31.9c-.9-8.9-7-14.7-15.7-14.7zm107 18.1c-5.5 0-12 1.3-12 7.6 0 5.3 4.1 8.7 10.5 8.7 7.8 0 13.1-3.5 15.5-10.1v-6.2h-14zm-61.6-18.1c-9.6 0-16.7 7.2-16.8 17.2.1 10.1 7 17.2 16.8 17.2 9.7 0 16.7-7.2 16.7-17.2-.1-9.9-7.1-17.2-16.7-17.2zm-45.4 0c-8.8 0-15.3 5.9-16.2 14.7h31.9c-.9-8.9-7-14.7-15.7-14.7zm0 0c-8.8 0-15.3 5.9-16.2 14.7h31.9c-.9-8.9-7-14.7-15.7-14.7zm45.4 0c-9.6 0-16.7 7.2-16.8 17.2.1 10.1 7 17.2 16.8 17.2 9.7 0 16.7-7.2 16.7-17.2-.1-9.9-7.1-17.2-16.7-17.2zm0 0c-9.6 0-16.7 7.2-16.8 17.2.1 10.1 7 17.2 16.8 17.2 9.7 0 16.7-7.2 16.7-17.2-.1-9.9-7.1-17.2-16.7-17.2zm-45.4 0c-8.8 0-15.3 5.9-16.2 14.7h31.9c-.9-8.9-7-14.7-15.7-14.7zm0 0c-8.8 0-15.3 5.9-16.2 14.7h31.9c-.9-8.9-7-14.7-15.7-14.7zm45.4 0c-9.6 0-16.7 7.2-16.8 17.2.1 10.1 7 17.2 16.8 17.2 9.7 0 16.7-7.2 16.7-17.2-.1-9.9-7.1-17.2-16.7-17.2zm0 0c-9.6 0-16.7 7.2-16.8 17.2.1 10.1 7 17.2 16.8 17.2 9.7 0 16.7-7.2 16.7-17.2-.1-9.9-7.1-17.2-16.7-17.2zm-45.4 0c-8.8 0-15.3 5.9-16.2 14.7h31.9c-.9-8.9-7-14.7-15.7-14.7z"/><path class="st0" d="M687.3 57.6c-3-37.1-76.1-58.9-140.4-55.4-64.1 3.5-118.1 26.7-140 53.4l-24.1 10.9 21.6 15.9c7.8 29.7 66.3 60.5 153.2 51.1 72.7-7.7 132.8-38 129.7-75.9zM498.6 92.4c0 .2-.2.4-.4.4H495c-.2 0-.4-.2-.4-.4V68c0-8.2-4.6-13-12.7-13-9.5.2-15.2 6.7-15.2 17.3v20.1c0 .2-.2.4-.4.4h-3.2c-.2 0-.4-.2-.4-.4V68c0-8.1-4.8-13-12.7-13-9.5.2-15.3 6.7-15.3 17.3v20.1c0 .2-.2.4-.4.4h-3.2c-.2 0-.4-.2-.4-.4v-41c0-.2.2-.4.4-.4h3.2c.2 0 .4.2.4.4v8.8c3-5.9 8.5-9.1 16.1-9.3 7.9 0 13.4 3.9 15.2 10.8 2.8-6.9 8.5-10.7 16.7-10.8 10 0 16 6.2 16 16.5v25zm47.3-19.2h-35.4c.6 9.5 7.2 15.9 16.5 15.9 5.5 0 10.3-2 13.5-5.5.1-.1.2-.1.3-.1.1 0 .2 0 .3.2l1.9 2.1c.1.2.1.4 0 .6-4 4.3-9.7 6.7-16.2 6.7-11.8 0-20.4-8.8-20.4-21S515 51 526.8 51c5.6 0 10.3 1.9 13.7 5.4 3.8 3.9 5.9 9.8 5.8 16.6 0 .1-.1.2-.4.2zm47.2 19.2c0 .2-.2.4-.4.4h-3.3c-.2 0-.4-.2-.4-.4v-8.9c-3.4 6-9.7 9.6-17.1 9.6-11.8 0-20.4-8.9-20.4-21.2 0-12.3 8.6-21.2 20.4-21.2 7.5 0 13.7 3.5 17.1 9.6V34c0-.2.2-.4.4-.4h3.3c.2 0 .4.2.4.4v58.4zm16.3 0c0 .2-.2.4-.4.4h-3.2c-.2 0-.4-.2-.4-.4v-41c0-.2.2-.4.4-.4h3.2c.2 0 .4.2.4.4v41zm-2-49.5c-1.8 0-3.2-1.5-3.2-3.3 0-1.8 1.4-3.3 3.2-3.3 1.8 0 3.2 1.5 3.2 3.3-.1 1.8-1.5 3.3-3.2 3.3zm44.5 49.8c-.1.1-.2.1-.3.1h-3.2c-.2 0-.4-.2-.4-.4l-.1-6.7c-3.4 4.7-8.9 7.2-16 7.2-8.2 0-14-5.1-14-12.5 0-7.1 6-11.5 15.7-11.5h14.2v-3.6c-.1-7-4.2-10.7-11.9-10.7-4.6 0-8.8 1.6-13.5 5.3-.1.1-.2.1-.3.1-.1 0-.2-.1-.3-.2l-1.6-2.5c-.1-.2-.1-.4.1-.6 4-2.9 9.1-5.9 16.1-5.9 9.6 0 15.4 5.3 15.5 14.3l.2 27.3c-.1.2-.1.3-.2.3z"/><g><path class="st0" d="M62 65.4v31.3H42.6V65.4v-.6-.4-.3c-.4-3.3-2.6-6-5.5-6.8-.5-.2-1.1-.3-1.7-.3-.9 0-1.8.1-2.6.3-1.9.3-3.9 1.2-5.6 2.7-2.6 2.2-4.1 5.1-4.2 7.7v29H3.4V43.4h19.4V51c3.1-3.2 6.1-5.4 9.2-6.7 3.1-1.3 6.5-1.9 10.3-1.9 13.1 0 19.7 7.7 19.7 23zM110.6 68.7l20.8-25.3h-21.2L99.9 57.9 89.7 43.4H65.8l21.7 27.1-21.2 26.2h21.2l10.6-15.1 10.6 15.1h23.9l-22-28zM168.3 82.6c-2.4 0-4.1-.4-5.3-1.2-1.2-.8-1.9-1.8-2.1-3.1-.3-1.2-.4-2.8-.4-4.8v-17h17.9V43.4h-17.9v-16H157l-24.8 26.4v2.7h8.8v21.3c0 13.3 7 19.9 21 19.9 3.2 0 6.6-.4 10.2-1.3 3.5-.9 4.4-1.8 6.4-2.7V78.9c-5 2.5-7.2 3.7-10.3 3.7z"/><g><path class="st0" d="M188.1 93.7V24.3h5.1v31.4c5.1-5.2 10.8-7.7 17.1-7.7 6.2 0 11.3 2.2 15.2 6.5 4 4.3 5.9 9.9 5.9 16.7 0 7.9-2.4 14.2-7.2 19-4.8 4.8-11.3 7.1-19.3 7.1-5.3 0-10.9-1.2-16.8-3.6zm5-32.3v28.7c3.9 1.5 7.8 2.2 11.7 2.2 6.1 0 11.2-2 15.2-5.9 4-3.9 6-8.9 6-15 0-5.6-1.5-10.2-4.6-13.8-3.1-3.6-7-5.4-11.7-5.4-5.7 0-11.2 3.1-16.6 9.2zM261.9 48c6.9 0 12.6 2.4 17.2 7.1 4.6 4.7 6.9 10.6 6.9 17.6 0 7-2.3 12.9-6.9 17.6s-10.3 7-17.2 7c-6.9 0-12.6-2.3-17.3-7-4.6-4.7-6.9-10.5-6.9-17.6 0-7 2.3-12.9 6.9-17.6 4.7-4.8 10.4-7.1 17.3-7.1zm0 44.3c5.3 0 9.8-1.9 13.4-5.6 3.6-3.7 5.4-8.4 5.4-14.1 0-5.6-1.8-10.3-5.4-14.1-3.6-3.8-8-5.7-13.3-5.7-5.4 0-9.8 1.9-13.4 5.6-3.6 3.7-5.4 8.5-5.4 14.1s1.8 10.3 5.4 14.1c3.4 3.9 7.9 5.7 13.3 5.7zM317 48c6.9 0 12.6 2.4 17.2 7.1 4.6 4.7 6.9 10.6 6.9 17.6 0 7-2.3 12.9-6.9 17.6s-10.3 7-17.2 7c-6.9 0-12.6-2.3-17.3-7-4.6-4.7-6.9-10.5-6.9-17.6 0-7 2.3-12.9 6.9-17.6 4.7-4.8 10.5-7.1 17.3-7.1zm0 44.3c5.3 0 9.8-1.9 13.4-5.6 3.6-3.7 5.4-8.4 5.4-14.1 0-5.6-1.8-10.3-5.4-14.1-3.6-3.8-8-5.7-13.3-5.7-5.4 0-9.8 1.9-13.4 5.6-3.6 3.7-5.4 8.5-5.4 14.1s1.8 10.3 5.4 14.1c3.5 3.9 8 5.7 13.3 5.7zM392 97.5c-.1.2-.3.3-.5.3h-4.7c-.2 0-.3-.1-.4-.2l-19.8-27.8-12.4 12.7v14.8c0 .3-.2.5-.5.5h-4.1c-.3 0-.5-.2-.5-.5V24.5c0-.3.2-.5.5-.5h4.1c.3 0 .5.2.5.5v50.7l29.3-29.3c.1-.1.2-.2.4-.2h5c.2 0 .4.1.5.3.1.2 0 .4-.1.6l-19 19.5L392 97c.1.2.1.4 0 .5z"/></g></g></svg>